# xmcd
#
# Track frame offsets: 
#        150
#        16629
#        35048
#        54820
#        78600
#        117375
#        137849
#        174891
#        207860
#        225604
#        242114
#        260780
#        275911
#
# Disc length: 3993 seconds
#
# Revision: 2
# Processed by: cddbd v1.5.2PL0 Copyright (c) Steve Scherf et al.
# Submitted via: ExactAudioCopyFreeDBPlugin 1.0
#
DISCID=b40f970d
DTITLE=UFO - The Chrysalis Years (1973-1979) [CD2]
DYEAR=2011
DGENRE=Heavy Metal
TTITLE0=Oh My (Electric Ballroom, Atlanta, GA 5th November 1974 Previo
TTITLE0=usly Unreleased)
TTITLE1=Doctor Doctor (Electric Ballroom, Atlanta, GA 5th November 197
TTITLE1=4 Previously Unreleased)
TTITLE2=Built For Comfort (Electric Ballroom, Atlanta, GA 5th November
TTITLE2=1974 Previously Unreleased)
TTITLE3=Give Her The Gun (Electric Ballroom, Atlanta, GA 5th November 
TTITLE3=1974 Previously Unreleased)
TTITLE4=Cold Turkey (Electric Ballroom, Atlanta, GA 5th November 1974 
TTITLE4=Previously Unreleased)
TTITLE5=Space Child (Electric Ballroom, Atlanta, GA 5th November 1974 
TTITLE5=Previously Unreleased)
TTITLE6=Rock Bottom (Electric Ballroom, Atlanta, GA 5th November 1974 
TTITLE6=Previously Unreleased)
TTITLE7=Prince Kujuku (Electric Ballroom, Atlanta, GA 5th November 197
TTITLE7=4 Previously Unreleased)
TTITLE8=Let It Roll (Force It Side One)
TTITLE9=Shoot Shoot (Force It Side One)
TTITLE10=High Flyer (Force It Side One)
TTITLE11=Love Lost Love (Force It Side One)
TTITLE12=Out In The Street (Force It Side One)
EXTD=
EXTT0=
EXTT1=
EXTT2=
EXTT3=
EXTT4=
EXTT5=
EXTT6=
EXTT7=
EXTT8=
EXTT9=
EXTT10=
EXTT11=
EXTT12=
PLAYORDER=
